<svg xmlns="http://www.w3.org/2000/svg" viewBox="0 0 64 64">
  <g>
    <animateTransform attributeName="transform" type="rotate"
                      values="-7 32 2; 7 32 2; -7 32 2" dur="2.2s" repeatCount="indefinite"/>

    <line x1="32" y1="0" x2="32" y2="13" stroke="#a8a29e" stroke-width="3" stroke-linecap="round"/>
    <ellipse cx="32" cy="14" rx="6.5" ry="4" fill="#374151"/>

    <rect x="21" y="12" width="11" height="20" rx="5.5" fill="#1f2937" transform="rotate(13 26 22)"/>
    <rect x="33" y="12" width="11" height="20" rx="5.5" fill="#1f2937" transform="rotate(-13 38 22)"/>

    <circle cx="20" cy="19" r="6.4" fill="#1f2937"/>
    <circle cx="44" cy="19" r="6.4" fill="#1f2937"/>

    <ellipse cx="32" cy="42" rx="19" ry="17" fill="#f8fafc"/>
    <path d="M13 39 Q32 31 51 39 Q32 35 13 39 Z" fill="#e2e8f0"/>

    <g>
      <animateTransform attributeName="transform" type="rotate"
                        values="-12 32 54; 12 32 54; -12 32 54" dur="1.1s" repeatCount="indefinite"/>
      <rect x="18" y="53" width="13" height="11" rx="5.5" fill="#1f2937"/>
      <rect x="33" y="53" width="13" height="11" rx="5.5" fill="#1f2937"/>
    </g>

    <circle cx="32" cy="28" r="13.5" fill="#f8fafc"/>
    <ellipse cx="26" cy="26" rx="4.8" ry="5.8" fill="#1f2937" transform="rotate(-16 26 26)"/>
    <ellipse cx="38" cy="26" rx="4.8" ry="5.8" fill="#1f2937" transform="rotate(16 38 26)"/>
    <circle cx="26" cy="26" r="2" fill="#f8fafc"/>
    <circle cx="38" cy="26" r="2" fill="#f8fafc"/>
    <circle cx="26" cy="26" r="1" fill="#111827"/>
    <circle cx="38" cy="26" r="1" fill="#111827"/>
    <ellipse cx="32" cy="34" rx="3.9" ry="3" fill="#1f2937"/>
    <path d="M32 37 Q29 40 27 38 M32 37 Q35 40 37 38" stroke="#1f2937" stroke-width="1.5"
          fill="none" stroke-linecap="round"/>
  </g>
</svg>
